<svg class="svg-icon" style="width: 1em; height: 1em;vertical-align: middle;fill: currentColor;overflow: hidden;" viewBox="0 0 1024 1024" version="1.1" xmlns="http://www.w3.org/2000/svg"><path d="M330.24 873.6A117.44 117.44 0 0 0 448 992h85.12a117.44 117.44 0 0 0 117.44-117.44V832h-320z m160-841.6a367.68 367.68 0 0 0-229.44 655.36A184.32 184.32 0 0 1 320 768h341.76a184.32 184.32 0 0 1 57.92-80.64A367.68 367.68 0 0 0 490.24 32z m0 207.04a160 160 0 0 0-160 160 48 48 0 0 1-96 0 256 256 0 0 1 256-256 48 48 0 0 1 0 96z" fill="#231F20" /></svg>